<svg xmlns="http://www.w3.org/2000/svg" version="1.0" width="71.000000pt" height="62.000000pt" viewBox="0 0 71.000000 62.000000" preserveAspectRatio="xMidYMid meet" style="
    fill: #0099B0;
    stroke: #0099B0;
">
<metadata>
Created by potrace 1.10, written by Peter Selinger 2001-2011
</metadata>
<g transform="translate(0.000000,62.000000) scale(0.100000,-0.100000)" fill="#0099B0" stroke="none">
<path d="M310 545 c-218 -70 -227 -385 -13 -465 77 -29 128 -26 202 11 153 77 185 262 67 387 -65 70 -167 96 -256 67z m174 -48 c52 -29 55 -43 10 -50 -21 -4 -54 -20 -75 -37 -21 -16 -41 -30 -44 -30 -4 0 -16 11 -27 25 -11 14 -38 30 -63 36 -53 13 -51 29 8 58 58 29 139 28 191 -2z m-179 -91 c39 -17 41 -21 22 -41 -9 -8 -19 -10 -28 -4 -22 14 -61 10 -81 -8 -51 -46 12 -135 72 -103 16 9 25 8 37 -1 13 -12 13 -15 -7 -31 -37 -30 -87 -23 -126 16 -55 55 -43 134 26 168 42 22 42 22 85 4z m261 -5 c44 -27 60 -71 45 -122 -23 -77 -114 -101 -170 -45 -21 21 -22 27 -11 41 12 14 15 14 35 -5 32 -30 84 -24 105 13 13 24 13 30 0 55 -12 21 -24 28 -53 30 -33 3 -42 -2 -98 -58 -56 -55 -64 -59 -78 -46 -13 14 -8 22 53 78 92 85 116 93 172 59z m-36 -76 c19 -22 -1 -39 -35 -31 -26 7 -27 8 -10 26 22 24 29 25 45 5z m-216 -10 c0 -5 -12 -17 -27 -25 -20 -11 -29 -12 -38 -3 -21 21 -2 45 33 41 18 -2 33 -7 32 -13z m111 -105 c10 -11 38 -26 62 -32 51 -12 51 -25 -3 -55 -54 -31 -141 -31 -195 -1 -44 24 -51 48 -15 48 12 0 41 13 62 29 47 35 65 38 89 11z"></path>
</g>
</svg>
