<svg version="1.1" fill="#fff" id="Layer_1" xmlns="http://www.w3.org/2000/svg" xmlns:xlink="http://www.w3.org/1999/xlink" x="0px" y="0px" viewBox="0 0 246.1 34.9" style="enable-background:new 0 0 246.1 34.9;" xml:space="preserve">
<path class="logo-text" d="M17.9,24.1c-0.4-1-1.1-2-2.1-3.1l-9.9-8.9C5,11.3,4.4,10.5,4.1,9.8c-0.3-0.7-0.4-1.7-0.4-3
	c0-1.3,0.5-2.3,1.4-3.1C6.1,3,7.4,2.6,9.2,2.6c1.8,0,3.2,0.4,4.1,1.1c0.9,0.8,1.4,1.8,1.4,3.1v2.3H18V7.1c0-4.7-2.8-7-8.6-7
	c-3,0-5.3,0.6-6.7,1.8C1.2,3.1,0.5,4.9,0.5,7.1c0,1.5,0.2,2.8,0.6,3.8c0.4,1,1.2,2,2.3,3l9.7,8.9c0.9,0.8,1.5,1.6,1.8,2.4
	c0.3,0.7,0.4,1.7,0.4,3c0,1.3-0.5,2.3-1.5,3.1c-1,0.7-2.4,1.1-4.3,1.1c-1.9,0-3.3-0.4-4.3-1.1c-1-0.7-1.5-1.8-1.5-3.1v-2.3H0.5v2.1
	c0,4.7,2.9,7,9,7c6.1,0,9-2.3,9-7C18.5,26.4,18.3,25.1,17.9,24.1"></path>
<polygon class="logo-text" points="35.5,18.2 35.5,34.3 32.5,34.3 32.5,18.3 23.8,0.7 27,0.7 34,14.7 40.9,0.7 44.1,0.7 "></polygon>
<polygon class="logo-text" points="69.6,34.3 69.6,28.9 54.8,5.6 54.6,5.6 54.6,34.3 51.7,34.3 51.7,0.2 54.6,0.2 69.4,23.8 69.6,23.8
	69.6,0.2 72.4,0.2 72.4,34.3 "></polygon>
<polygon class="logo-text" points="91.1,3.6 91.1,34.3 88.1,34.3 88.1,3.6 80.1,3.6 80.1,0.7 99.1,0.7 99.1,3.6 "></polygon>
<polygon class="logo-text" points="123.8,34.3 123.8,18.9 110.9,18.9 110.9,34.3 107.9,34.3 107.9,0.7 110.9,0.7 110.9,16.1 123.8,16.1
	123.8,0.7 126.8,0.7 126.8,34.3 "></polygon>
<path class="logo-text" d="M154.3,34.3L145.2,20H141v14.3h-3V0.7h10.7c1.1,0,2.2,0.2,3.2,0.6c1,0.4,1.9,1,2.6,1.8s1.3,1.6,1.8,2.6
	c0.4,1,0.6,2.1,0.6,3.2v2.7c0,1.1-0.2,2.2-0.6,3.2c-0.4,1-1,1.9-1.8,2.6s-1.6,1.3-2.6,1.8c-1,0.4-2.1,0.6-3.2,0.6l9.1,14.3H154.3z
	 M153.9,9c0-0.8-0.1-1.4-0.4-2.1c-0.3-0.6-0.7-1.2-1.1-1.7c-0.5-0.5-1.1-0.9-1.7-1.2c-0.6-0.3-1.3-0.4-2.1-0.4H141v13.5h7.5
	c0.8,0,1.5-0.1,2.1-0.4c0.6-0.3,1.2-0.7,1.7-1.2c0.5-0.5,0.9-1.1,1.1-1.7c0.3-0.6,0.4-1.3,0.4-2.1V9z"></path>
<path class="logo-text" d="M185.3,29.7c-0.4,1-1,1.9-1.8,2.6c-0.8,0.8-1.6,1.3-2.6,1.8c-1,0.4-2.1,0.6-3.2,0.6h-2.4
	c-1.1,0-2.2-0.2-3.2-0.6c-1-0.4-1.9-1-2.6-1.8c-0.8-0.7-1.3-1.6-1.8-2.6s-0.6-2.1-0.6-3.2v-18c0-1.1,0.2-2.2,0.6-3.2s1-1.9,1.8-2.6
	s1.6-1.3,2.6-1.8c1-0.4,2.1-0.6,3.2-0.6h2.4c1.1,0,2.2,0.2,3.2,0.6c1,0.4,1.9,1,2.6,1.8s1.3,1.6,1.8,2.6s0.6,2.1,0.6,3.2v18
	C186,27.7,185.8,28.7,185.3,29.7 M183,8.5c0-0.7-0.1-1.4-0.4-2.1c-0.3-0.6-0.7-1.2-1.1-1.7c-0.5-0.5-1.1-0.9-1.7-1.1
	c-0.6-0.3-1.3-0.4-2.1-0.4h-2.1c-0.8,0-1.4,0.1-2.1,0.4c-0.6,0.3-1.2,0.7-1.7,1.1c-0.5,0.5-0.9,1.1-1.2,1.7
	c-0.3,0.6-0.4,1.3-0.4,2.1v18c0,0.8,0.1,1.4,0.4,2.1c0.3,0.6,0.7,1.2,1.2,1.7c0.5,0.5,1.1,0.9,1.7,1.2c0.6,0.3,1.3,0.4,2.1,0.4h2.1
	c0.8,0,1.4-0.1,2.1-0.4c0.6-0.3,1.2-0.7,1.7-1.2c0.5-0.5,0.9-1.1,1.1-1.7c0.3-0.6,0.4-1.3,0.4-2.1V8.5z"></path>
<polygon class="logo-text" points="213.9,34.3 213.9,28.9 199,5.6 198.9,5.6 198.9,34.3 196,34.3 196,0.2 198.8,0.2 213.7,23.8
	213.9,23.8 213.9,0.2 216.7,0.2 216.7,34.3 "></polygon>
<polygon class="logo-text" points="227.2,34.3 227.2,0.7 246.1,0.7 246.1,3.6 230.2,3.6 230.2,16.1 243.1,16.1 243.1,18.9 230.2,18.9
	230.2,31.4 246.1,31.4 246.1,34.3 "></polygon>
<desc>Created with Snap</desc><defs></defs></svg>
