<svg xmlns:inkscape="http://www.inkscape.org/namespaces/inkscape" xmlns:rdf="http://www.w3.org/1999/02/22-rdf-syntax-ns#" xmlns="http://www.w3.org/2000/svg" xmlns:cc="http://web.resource.org/cc/" xmlns:dc="http://purl.org/dc/elements/1.1/" xmlns:sodipodi="http://inkscape.sourceforge.net/DTD/sodipodi-0.dtd" xmlns:svg="http://www.w3.org/2000/svg" xmlns:ns1="http://sozi.baierouge.fr" xmlns:xlink="http://www.w3.org/1999/xlink" id="svg2" sodipodi:docname="Katowice_Herb.svg" viewBox="0 0 744 914" sodipodi:version="0.32" version="1.0" inkscape:version="0.43+devel" sodipodi:docbase="H:\svg\cliparty">
  <sodipodi:namedview id="base" bordercolor="#666666" inkscape:pageshadow="2" inkscape:window-y="36" pagecolor="#ffffff" inkscape:zoom="0.35539095" inkscape:window-x="176" borderopacity="1.0" width="744px" inkscape:cx="372.04724" inkscape:cy="526.18109" inkscape:current-layer="svg2" inkscape:window-height="681" height="914px" inkscape:pageopacity="0.0" inkscape:window-width="789"/>
  <g id="layer1" transform="matrix(1.175 0 0 1.175 -47.035 -123.19)">
    <g id="g1335">
      <path id="path1387" style="fill:#3258fd" d="m252.69 705.88c-101.64 0.04-183.03 0.16-183.32 0.34-0.002 0-0.02 0.02-0.026 0.03-0.393 0.34-0.397 1.43-0.032 5.56 2.17 24.51 8.678 42.05 21.094 56.81 14.744 17.53 36.504 27.04 66.094 28.88 4.07 0.25 29.93 0.44 65.62 0.44 60.56 0 62.98 0.06 72.69 1.68 29.7 4.97 53.91 18.63 64.19 36.22 0.85 1.47 1.78 2.67 2.12 2.82h0.04 0.03 0.03c0.03-0.02 0.1-0.05 0.16-0.1 0.48-0.42 1.59-1.92 2.68-3.68 11.14-18 34.43-31.75 63.6-37.54 10.49-2.08 7.08-1.95 68.22-2.25 60.59-0.29 58.52-0.23 69.87-2.21 22.47-3.93 40.49-12.84 54.81-27.13 12.09-12.06 20.2-26.59 25.25-45.22 0.88-3.25 1.93-7.7 2.31-9.91 0.47-2.65 0.58-3.64 0.38-4.09-0.03-0.06-0.08-0.14-0.12-0.19-0.04-0.03-0.09-0.06-0.13-0.09-0.47-0.3-226.17-0.44-395.56-0.37z"/>
      <path id="path1385" style="fill:#987a5b" d="m68.719 584.37s-0.23 105.5-0.228 105.5l581.07 0.32-0.28-105.82h-580.56z"/>
      <path id="path1391" style="fill:#fde500" d="m663.5 117.46l-607.37 0.23c-0.003 0-0.113 427.82-0.003 429.61 0.001 0-0.001 0.03 0 0.03 0.011 0.01 0.045 0.02 0.065 0.03l607.08 0.26 0.23-430.16z"/>
      <path id="path1379" style="fill:#000000" d="m358.37 876.97c-10.73-20.98-26.6-37.3-44.39-45.65-7.28-3.42-13.6-5.42-23.25-7.36-1.78-0.36-20.65-0.56-71.88-0.76-75.5-0.31-70.81-0.16-83.93-2.63-17.4-3.27-33.04-10.07-46.852-20.36-4.746-3.54-12.447-10.94-16.787-16.13-6.369-7.62-12.999-18.6-16.855-27.91-5.7-13.76-9.289-30.1-9.825-44.73-0.138-3.76-0.406-6.93-0.596-7.05s-0.345-134.13-0.345-297.8v-297.59h313.5 313.51v300.03c0 165.02-0.16 300.13-0.35 300.25s-0.46 1.62-0.61 3.34c-1.54 18.22-8.75 38.55-19.21 54.14-19.54 29.13-49.86 46.95-89.22 52.45-5.89 0.82-8.25 0.86-64.78 1.12-63.89 0.29-59.63 0.13-69.06 2.62-19.68 5.19-39.52 19.9-55.07 40.84-3.28 4.42-8.87 13.08-10.17 15.76-0.51 1.05-1.06 1.9-1.23 1.9s-1.34-2.01-2.6-4.48zm5.68-42.09c11.14-18 34.43-31.75 63.6-37.53 10.49-2.08 7.1-1.97 68.24-2.27 60.59-0.29 58.52-0.23 69.87-2.21 22.47-3.92 40.47-12.83 54.8-27.13 12.09-12.06 20.21-26.58 25.26-45.21 0.88-3.26 1.92-7.72 2.3-9.92 0.61-3.47 0.63-4.05 0.12-4.37-0.76-0.48-578.1-0.5-578.85-0.02-0.453 0.28-0.468 1.26-0.084 5.59 2.169 24.51 8.683 42.05 21.099 56.81 14.735 17.53 36.525 27.04 66.105 28.89 4.08 0.25 29.94 0.42 65.63 0.42 60.55 0 62.97 0.06 72.68 1.68 29.7 4.97 53.91 18.63 64.19 36.23 0.91 1.56 1.89 2.83 2.17 2.83 0.29 0 1.58-1.71 2.87-3.79zm285.23-197.67v-51.74h-290.28-290.28l-0.109 51.33c-0.057 28.23-0.017 51.56 0.089 51.84 0.155 0.41 58.45 0.49 290.39 0.41l290.19-0.1v-51.74zm-506.82 39.16c-0.9-0.25-2.32-0.79-3.16-1.19-0.85-0.41-4.13-1.37-7.3-2.15-6.08-1.49-9.26-2.9-10.35-4.56-1.4-2.13-12.72-6.62-16.7-6.62-1.16 0-1.91-0.25-2.42-0.81-0.4-0.45-1.17-0.81-1.7-0.81-2.897 0-7.855-4.22-8.689-7.38-0.26-0.99-1.3-3.35-2.312-5.25-1.691-3.19-1.824-3.65-1.64-5.71 0.406-4.55 2.898-9.91 5.95-12.81 0.694-0.65 1.263-1.54 1.263-1.96s0.212-1.16 0.471-1.64c0.589-1.11 1.155-3.21 1.502-5.59 0.262-1.79 0.3-1.83 1.897-1.95 2.658-0.19 6.408-1.62 9.368-3.56 1.52-1 3.01-1.82 3.31-1.82 0.29 0 1.19-0.72 2-1.59 0.8-0.87 2.52-2.06 3.82-2.64 2.15-0.97 12.16-3.92 13.29-3.92 0.26 0 1.19-0.51 2.07-1.14 1.15-0.83 2.46-1.28 4.77-1.63 1.89-0.29 3.88-0.89 4.89-1.48 0.94-0.55 3.33-1.47 5.32-2.04 2.4-0.69 4.08-1.45 5-2.26 2.48-2.18 3.71-2.6 8.17-2.78l4.16-0.17 0.89 1.84c1.21 2.47 0.89 3.14-1.5 3.14-1.08 0-2.52 0.34-3.37 0.79-0.82 0.43-2.56 1.1-3.87 1.49s-3.5 1.43-4.86 2.31-2.92 1.77-3.47 1.98-2.49 1.44-4.31 2.75c-8.49 6.08-9.46 6.61-13.02 7.14-1.85 0.28-3.86 0.84-4.53 1.29-1.39 0.9-3.89 3.32-3.89 3.76 0 0.16-0.69 0.75-1.52 1.31-2.43 1.63-7.6 6.29-8.18 7.39-0.29 0.55-1.05 1.2-1.69 1.44-2.59 0.98-3.42 4.53-2.8 11.94 0.33 4.01 0.54 4.91 1.44 6.22 1.44 2.09 4.03 4.38 4.97 4.38 1.38 0 7.53 3.36 9.48 5.19 1.9 1.78 4.21 3.2 8.49 5.2 1.23 0.58 3.52 1.68 5.09 2.45s5.13 1.96 7.91 2.65c6.85 1.7 9.41 3.1 9.41 5.14 0 0.64-0.3 1.01-0.92 1.16-0.5 0.11-2.11 0.48-3.57 0.81-1.45 0.33-3.37 0.97-4.26 1.42-1.77 0.91-2.47 0.95-4.9 0.27zm161.94-0.12c-2.87-0.45-7.41-1.51-9.7-2.27-2.14-0.7-2.76-1.13-3.76-2.58-0.66-0.96-1.38-2.21-1.59-2.77-0.57-1.49-1.91-2.17-4.91-2.48-3.55-0.36-9.34-2.34-17.84-6.09-7.63-3.37-12.74-5.03-16.59-5.4-1.34-0.13-2.81-0.49-3.25-0.79-0.45-0.31-2.37-1.62-4.26-2.91-2.67-1.82-3.68-2.79-4.48-4.29-0.85-1.6-1.45-2.14-3.28-2.98-1.24-0.57-3.39-1.78-4.79-2.68-2.9-1.89-2.93-1.99-2.11-7.88 0.47-3.4 0.97-4.09 4.98-6.76 2.19-1.45 6.14-5.51 6.86-7.05 0.6-1.27 0.62-1.28 4.02-2.87 4.27-1.98 6.73-3.49 8.35-5.13 0.9-0.9 3.68-3.53 6.19-5.84l4.56-4.2 9.26-0.27c15.69-0.45 16.16-0.43 17.19 0.75 0.49 0.56 1.07 1.02 1.3 1.02 0.6 0 0.5 2.04-0.1 2.2-3.24 0.86-5.46 1.3-10.38 2.06-4.07 0.63-6.04 1.12-6.61 1.63-0.45 0.41-2.52 1.59-4.6 2.62-3.72 1.85-3.77 1.9-3.71 3.31 0.04 0.78 0.2 1.95 0.37 2.6 0.28 1.11 0.23 1.17-0.68 0.91-3.24-0.94-3.31-0.92-7 2.16-3.59 3.01-6.9 7.28-7.64 9.85-0.21 0.76-0.39 2.78-0.39 4.5v3.12l3.31 2.74c3.14 2.6 3.8 2.93 13.95 7.01 9.99 4.02 10.9 4.47 14.72 7.34 2.24 1.69 4.79 3.39 5.67 3.79 1.01 0.46 1.77 1.16 2.11 1.95 0.53 1.28 2.56 2.76 5.06 3.71 0.78 0.3 2.43 0.96 3.66 1.48 1.3 0.54 4 1.13 6.41 1.41 4.04 0.46 4.18 0.51 4.92 1.77 0.51 0.86 1.66 1.74 3.45 2.62 2.55 1.25 3.54 2.37 2.95 3.33-0.14 0.22-0.57 0.41-0.95 0.42-0.37 0-1.42 0.27-2.31 0.59-1.51 0.54-5.96 0.73-8.36 0.35zm-65.86-0.7c-1.6-0.25-3.25-0.75-3.67-1.12-1.24-1.1-3.06-1.87-7.09-3.03-6.07-1.73-6.3-1.76-14.09-2.22-6.8-0.39-9.23-0.77-12.57-1.97-0.67-0.24-2.36-0.65-3.77-0.91-3.06-0.58-6.83-2.69-9.46-5.3-1.54-1.54-2.26-1.94-3.89-2.18-3.36-0.51-8.64-2.48-15.77-5.89-3.74-1.79-7.47-3.38-8.3-3.54-1.91-0.36-3.17-1.55-2.65-2.52 0.21-0.38 0.38-2.72 0.39-5.18 0.02-6.38 0.93-9.5 5.25-18.08l3.57-7.08 3.67-1.4c2.02-0.77 4.04-1.75 4.49-2.17 1.24-1.17 3.7-1.9 8.82-2.63 6.37-0.92 8.29-1.53 11.23-3.6 2.37-1.67 2.77-1.81 5.93-2.05 4.07-0.31 6.98-1.13 8.23-2.31 0.62-0.57 1.83-0.99 3.67-1.25 2.17-0.31 3.22-0.72 5.05-2.01 1.28-0.89 2.46-1.63 2.63-1.63s2.27-1.13 4.67-2.51c4.8-2.78 5-2.81 10.06-1.72 4.22 0.9 4.69 1.16 4.69 2.6 0 0.91-0.19 1.23-0.73 1.23-0.4 0-1.83 0.28-3.16 0.62-1.87 0.47-2.69 0.94-3.58 2.03-0.97 1.17-1.84 1.62-5.27 2.67-2.9 0.9-4.46 1.62-5.28 2.45-0.65 0.64-1.79 1.46-2.54 1.82-0.75 0.35-2.07 1.23-2.93 1.95-5.8 4.83-8.39 6.15-14.52 7.37-3.31 0.66-4.43 1.09-5.79 2.25-0.45 0.38-2.83 1.11-5.3 1.62-2.46 0.51-4.7 0.99-4.97 1.07-0.26 0.08-1.12 1.52-1.89 3.19-0.78 1.68-2.35 4.21-3.49 5.62-2.03 2.52-2.07 2.62-2.07 5.31 0 2.29 0.23 3.23 1.45 5.8 0.8 1.69 1.6 3.16 1.78 3.27s0.56 1.03 0.84 2.05c0.44 1.58 0.97 2.21 3.42 4.13 2.93 2.28 7.06 4.63 8.15 4.63 0.33 0 1.21 0.63 1.95 1.4 1.33 1.38 1.44 1.42 6.16 1.85 8.76 0.79 16.35 2.6 19.44 4.65 0.78 0.52 1.88 1.09 2.44 1.26s1.29 0.53 1.63 0.8c0.9 0.74 6.07 2.11 11.61 3.09 6.04 1.07 9.13 2.35 10.14 4.24 0.98 1.83 0.73 2.7-0.98 3.32s-3.71 0.62-7.6 0.01zm309.09-3.27c0-2.46 6.31-5.72 21.39-11.05 7.11-2.51 20.58-9.18 22.94-11.35l1.82-1.67 10.34-0.01h10.35l2.33-2.43 2.33-2.43-0.04-4.7c-0.08-9.5-3.19-16.04-8.39-17.6-1.27-0.38-2.41-1.22-4.12-3.05-1.3-1.39-3.69-3.54-5.31-4.79-1.63-1.24-3.49-2.96-4.14-3.83-1.67-2.23-3.2-3.03-6.87-3.59-2.7-0.41-3.42-0.7-4.54-1.78-1.8-1.75-6.14-3.26-10.17-3.54-2.58-0.18-4.07-0.04-7.04 0.69-2.07 0.5-4.18 0.81-4.69 0.69-3.5-0.85-4.47-1.18-5.73-1.93-0.91-0.53-2-0.8-3.01-0.74-2.74 0.16-3.14-0.59-1.74-3.33l0.82-1.62 3.15 0.01c3.8 0 5.42 0.41 7.97 2.03 1.06 0.67 2.15 1.22 2.41 1.22s1.08-0.58 1.82-1.3l1.34-1.3 5.4 0.05c6.35 0.06 13.23 1.2 14.96 2.48 0.62 0.46 3.22 1.51 5.77 2.34 6.01 1.95 8.17 3.07 9.74 5.03 0.71 0.88 1.75 1.72 2.32 1.86s2.09 0.97 3.38 1.85c2.79 1.9 6.32 3.31 7.51 3.02 1.12-0.29 3.07 1.23 3.08 2.4 0.01 0.49 0.28 1.35 0.6 1.91s0.59 1.32 0.6 1.69c0.02 1.03 3.19 6.43 4.94 8.42 1.92 2.19 2.59 4.87 2.33 9.34-0.13 2.22-0.46 3.75-1.04 4.83-3.14 5.9-4.18 8.09-4.41 9.33-0.38 2-5.16 6.91-7.56 7.76-4.19 1.47-11.62 2.64-19.36 3.04-8.62 0.45-14.09 1.25-16.37 2.39-0.83 0.42-2.15 0.87-2.94 1.02-0.79 0.14-2.87 0.81-4.61 1.48-2.34 0.9-3.36 1.11-3.91 0.82-0.77-0.41-2.06-0.02-16.44 5.05-3.55 1.25-6.62 2.27-6.83 2.27s-0.38-0.44-0.38-0.98zm-180.48-1.16c-1.01-0.47-3.57-1.09-5.69-1.39-2.95-0.41-4.64-0.92-7.18-2.16-4.64-2.27-11.12-4.36-16.11-5.2-2.68-0.46-4.45-0.96-4.84-1.39-0.34-0.37-6.89-3.83-14.57-7.69-8.64-4.34-14.27-7.4-14.77-8.03-1.85-2.35-1.97-6.22-0.36-11.14 2.27-6.92 3.02-8.35 5.92-11.26 2.37-2.37 3.65-3.24 8.06-5.44 2.88-1.44 6-3.28 6.92-4.1 1.38-1.21 2.19-1.56 4.62-1.97 1.63-0.27 3.38-0.84 3.94-1.28 0.55-0.43 1.77-1.06 2.7-1.39 0.94-0.33 2.55-1.22 3.59-1.98s3.18-2.06 4.75-2.89c1.57-0.82 3.22-1.83 3.66-2.23 0.45-0.4 2.45-1.78 4.43-3.08 3.5-2.28 3.71-2.36 6.32-2.35 3.01 0.01 5.95 0.99 6.59 2.2 0.35 0.64 0.91 0.77 3.56 0.78 5.24 0.04 18.33 3.96 20.87 6.26 1.18 1.06 2.85 1.8 7.4 3.26 4.03 1.3 6.27 2.25 7.1 3.01 0.67 0.61 2.12 1.58 3.22 2.14 1.29 0.67 2.91 2.11 4.58 4.07 1.42 1.67 3.49 4.05 4.6 5.28l2.02 2.24v3.1c0 1.7 0.11 4.45 0.25 6.11 0.22 2.69 0.15 3.12-0.61 3.99-0.48 0.54-0.86 1.23-0.86 1.54 0 0.75-2.31 5.33-3.46 6.85-0.6 0.8-1.59 1.43-2.88 1.81-1.32 0.38-2.53 1.15-3.65 2.29-0.96 1-3.22 2.51-5.31 3.57-4.17 2.11-8.34 4.96-9.59 6.55-0.47 0.6-1.57 1.45-2.43 1.89-0.88 0.45-2.77 2.22-4.27 4.02-2.65 3.16-2.74 3.23-5.21 3.67-8.05 1.46-10.76 1.53-13.31 0.34zm6.34-9.46c2.45-0.73 5.79-3.8 7.28-6.69 0.35-0.67 1.51-1.82 2.57-2.54s2.49-1.87 3.16-2.56c1.34-1.37 4.28-5.28 4.28-5.7 0-0.43 2.57-4.02 3.82-5.33 0.64-0.68 1.85-1.96 2.7-2.86 2.54-2.7 3.38-4.8 3.41-8.55 0.03-2.76-0.12-3.51-0.96-4.89-2.57-4.23-4.05-5.27-11.39-8-2.58-0.97-3.85-1.71-5.12-3.02-1.05-1.08-2.69-2.16-4.31-2.83-1.44-0.6-3.62-1.57-4.85-2.17-1.99-0.96-2.81-1.09-7.58-1.23-5.88-0.17-5.7-0.23-9.54 2.75-1.93 1.49-2.47 1.97-7.22 6.31-1.61 1.48-3.3 2.69-3.75 2.69-0.68 0-5.55 2.86-12.25 7.2-3.78 2.45-4.5 3.18-5.73 5.81-1.16 2.48-1.24 2.89-0.97 5.52 0.23 2.31 0.6 3.38 1.94 5.64 0.92 1.53 2.14 3.03 2.72 3.33 0.59 0.3 3.44 1.22 6.34 2.03 2.94 0.83 5.82 1.91 6.51 2.43 0.68 0.52 2.6 1.53 4.27 2.24 1.68 0.71 3.6 1.81 4.27 2.45 0.67 0.63 2.32 1.7 3.67 2.38 1.34 0.67 3.14 1.78 4 2.46 0.98 0.79 2.26 1.35 3.46 1.53 1.07 0.16 2.41 0.7 3.06 1.24 1.36 1.13 3.26 1.24 6.21 0.36zm54.77 9.16c-0.34-0.22-1.02-0.4-1.51-0.4-1.12-0.01-1.49-0.59-1.18-1.85 0.19-0.74 0.68-1.09 1.98-1.42 4.85-1.23 10.98-3.7 18.57-7.5 4.63-2.31 12.54-6 17.58-8.19 7.15-3.1 9.57-4.35 11-5.66 1.01-0.93 2.61-2.31 3.56-3.07 0.95-0.75 2.1-2.14 2.55-3.07 2.97-6.13-3.07-15-11.23-16.5-1.1-0.2-3.02-0.73-4.25-1.17s-4.35-1.11-6.92-1.47c-5.54-0.79-8.18-1.57-9.23-2.73-0.41-0.46-1.52-1.2-2.45-1.64s-4.11-2.75-7.06-5.15c-8.01-6.49-10.16-8.08-12.74-9.46-2.74-1.47-2.97-2.32-1.09-4.08l1.24-1.16 12.1 5.24c6.65 2.88 12.92 5.61 13.93 6.07 1.02 0.45 3.85 1.3 6.3 1.88s5.22 1.48 6.16 2c1.23 0.69 3.69 1.27 8.98 2.1 5.38 0.85 7.58 1.37 8.42 1.99 0.63 0.46 1.9 1.11 2.82 1.45 1.28 0.47 1.9 1.04 2.6 2.35 1.4 2.65 3.16 4.7 5.75 6.66 4.27 3.25 4.64 3.75 5.03 6.8 0.72 5.52 0.61 6.11-1.79 9.56-2.2 3.15-3.92 5.33-6.18 7.81-1.02 1.11-1.83 1.49-4.76 2.18-1.95 0.46-3.96 1.12-4.47 1.48s-1.6 0.65-2.43 0.65c-3.2 0-7.33 1.76-14.69 6.27-4.05 2.48-7.44 3.84-10.39 4.17-1.62 0.18-3.08 0.69-4.61 1.61-2.69 1.62-7.54 3.22-12.25 4.05-3.91 0.69-8.44 0.78-9.34 0.2zm58.09-0.53c-4.19-1.31-0.84-2.8 10.65-4.75 3.15-0.54 5.68-1.22 6.85-1.84 1.03-0.55 3.78-2.82 6.12-5.06 4.97-4.74 8.31-7.04 11.69-8.05 1.76-0.53 2.71-1.09 3.41-2.01 0.91-1.19 1.2-1.29 4.3-1.55 1.83-0.16 6.04-0.83 9.36-1.5 4.88-0.98 6.68-1.55 9.4-2.95 3.33-1.72 3.39-1.78 4.89-4.78 0.84-1.67 1.52-3.29 1.53-3.6 0.01-0.72-3.9-7.55-5.46-9.53-0.66-0.85-2.14-2.06-3.27-2.69-3.74-2.09-6.72-3.89-11.14-6.72-2.4-1.54-5.28-3.24-6.4-3.78s-2.64-1.42-3.38-1.96c-0.8-0.58-2.91-1.34-5.26-1.87-4.53-1.03-5.97-1.58-7.65-2.9-1.18-0.93-1.4-0.95-8.27-0.83l-7.05 0.13-1.12-1.19c-0.8-0.86-2.15-1.51-4.77-2.31-3.02-0.92-3.91-1.39-5.13-2.72-1.24-1.34-1.96-1.71-4.4-2.28-2.88-0.68-2.92-0.71-2.8-1.92 0.12-1.19 0.25-1.27 3.59-2.12 4.83-1.23 6.12-1.19 8.23 0.22 1.73 1.17 3.85 2.43 6.23 3.7 0.67 0.37 2.03 1.2 3.03 1.87 1.78 1.19 1.86 1.2 6.64 1.07 4.08-0.11 5.01-0.02 5.93 0.58 1.39 0.91 5.8 0.89 13.19-0.05l5.26-0.67 1.51 1.13c0.83 0.63 4.15 3.33 7.38 6 4.73 3.93 6.51 5.14 9.17 6.25 5.07 2.12 5.63 2.46 10.11 6.02 4.95 3.93 7.89 7.12 9.75 10.56 1.19 2.19 1.35 2.87 1.36 5.55 0 2.45-0.2 3.46-1.02 5.1-1.43 2.87-6.1 7.42-7.97 7.77-0.83 0.16-2.73 1.23-4.38 2.49-5.76 4.38-10.64 6.47-16.16 6.92-2.13 0.17-3.57 0.54-4.72 1.21-0.92 0.52-2.74 1.32-4.05 1.77-1.31 0.46-2.67 1.08-3.02 1.38-1.16 1.02-3.27 1.9-6.34 2.67-1.67 0.42-3.92 1.29-4.99 1.94-2.06 1.26-3.93 2.05-10.5 4.43l-4.07 1.47-4.51-0.5c-2.48-0.28-5.14-0.37-5.9-0.22-2.84 0.58-4.29 0.61-5.85 0.12zm-349.88-123c0.37-0.37 0.49-5.63 0.49-21.18v-20.7h3.45c3.14 0 3.51-0.09 4.04-0.92 0.32-0.5 4.11-11.91 8.41-25.36 4.31-13.44 7.99-24.77 8.2-25.16 0.3-0.57 0.92-0.71 3.16-0.71 2.18 0 2.85-0.14 3.05-0.64 0.13-0.36 0.24-8.06 0.24-17.12v-16.46h23.84 23.83v16.65c0 13.13 0.11 16.75 0.53 17.09 0.29 0.24 1.89 0.5 3.56 0.56l3.04 0.12 8.56 25.59c4.72 14.07 8.84 25.76 9.17 25.97 0.33 0.2 1.75 0.38 3.15 0.38l2.55 0.01v20.73c0 17.25 0.09 20.8 0.57 21.2 0.37 0.3 1.97 0.43 4.58 0.35l4.01-0.11 0.26-4.49c0.14-2.46 0.27-12.38 0.3-22.04l0.05-17.55 2.55-3.02c10.25-12.14 19.45-25.04 32.1-44.98 3.25-5.12 9.99-17.44 14.03-25.67 9.1-18.47 14.56-33.94 17.36-49.17 0.75-4.04 0.89-7.04 1.19-24.36 0.18-10.87 0.35-38.33 0.37-61.01l0.03-41.25h6.13 6.12l0.39-1.05c0.24-0.62 0.41-8.29 0.41-18.84 0.01-16.71 0.06-17.91 0.8-19.53 1.25-2.76 2.76-4.46 5.66-6.37 5.21-3.45 12.22-5.02 20.6-4.62 7.96 0.38 14.06 2.65 18.16 6.76 3.72 3.71 3.66 3.36 3.66 23.93 0 10.47 0.16 18.05 0.4 18.67l0.4 1.05h7.69 7.7l0.23 61.21c0.24 62.8 0.28 64.27 1.96 74.45 4.19 25.33 17.46 55.96 34.95 80.67 7.54 10.65 20.21 24.45 27.85 30.33l3.56 2.74v21.71c0 17.77 0.1 21.8 0.56 22.17 0.4 0.34 24.25 0.43 90.14 0.36l89.58-0.1 0.11-15.23c0.08-11.13-0.02-15.39-0.37-15.81-0.36-0.43-1.38-0.54-4.18-0.45l-3.71 0.12-0.11 7.02c-0.13 8.09 0.46 7.23-5.18 7.6-3.07 0.2-15.68-0.42-16.04-0.79-0.09-0.09 0.21-3.6 0.68-7.8 0.58-5.15 0.72-7.79 0.45-8.12-0.23-0.27-1.36-0.61-2.53-0.75-11.94-1.44-26.6-5.59-40.2-11.38-5.01-2.13-6.41-2.58-6.81-2.18-0.28 0.28-1.79 3.35-3.36 6.82-1.59 3.53-3.12 6.37-3.46 6.44-1.31 0.28-12.67-5.65-16.03-8.37l-1.75-1.41 1.72-3.11c4.08-7.42 4.81-8.87 4.82-9.53 0-0.45-1.59-1.77-4.37-3.63-8.74-5.85-18.84-14.05-27.94-22.7-3.1-2.95-5.91-5.36-6.26-5.36s-2.97 2.2-5.83 4.89-5.39 4.89-5.62 4.89c-0.82 0-12.71-15.08-12.71-16.12 0-0.43 1.72-1.87 7.64-6.4 1.4-1.07 2.54-2.23 2.54-2.58 0-0.34-0.8-1.76-1.78-3.14-3.53-4.99-8.21-12.83-11.7-19.63-3.16-6.13-7.93-17.14-9.33-21.52-0.27-0.85-0.71-1.64-0.98-1.74-0.27-0.11-3.48 1.1-7.14 2.67-3.67 1.58-6.71 2.87-6.78 2.87-0.59 0-5.88-16.49-6.01-18.71l-0.08-1.39 6.52-1.58c3.59-0.88 6.69-1.75 6.89-1.96 0.22-0.21-0.07-2.96-0.71-6.8-1.17-7.01-2.71-18.61-2.71-20.45 0-0.64-0.27-1.38-0.6-1.66-0.43-0.35-8.99-0.83-30.05-1.66-16.2-0.65-29.49-1.18-29.55-1.19-0.26-0.03-0.06-66.39 0.2-66.55 0.17-0.1 14.13 3.45 31.03 7.89 16.89 4.43 30.94 7.97 31.22 7.87 0.28-0.11 0.92-1.98 1.42-4.15 2.1-9.14 5.6-19.64 9.53-28.55 1.03-2.33 1.87-4.55 1.87-4.93 0-0.51-1.8-1.5-6.75-3.69-3.71-1.64-6.84-3.15-6.97-3.35-0.33-0.53 7.88-16.97 8.62-17.25 0.38-0.15 3.18 1.18 6.91 3.26 3.45 1.93 6.44 3.51 6.63 3.51 0.2 0 1.62-1.88 3.16-4.17 6.55-9.8 15.91-21.56 24.82-31.23 2.15-2.34 3.91-4.51 3.91-4.83s-1.92-2.84-4.27-5.61c-2.36-2.77-4.28-5.27-4.28-5.58 0-1.19 7.76-8.08 13.17-11.7 3.75-2.5 2.87-2.88 8.46 3.65 2.11 2.46 4.14 4.47 4.52 4.47 0.37 0 4.13-1.82 8.35-4.04 4.22-2.23 13.99-7.35 21.72-11.38 11.06-5.76 14.09-7.51 14.19-8.19 0.07-0.47-0.72-3.58-1.77-6.91-1.04-3.33-1.83-6.47-1.76-6.98 0.11-0.75 0.76-1.15 3.4-2.1 3.89-1.41 15.28-4.45 15.69-4.19 0.17 0.1 1.18 3.32 2.25 7.16 1.14 4.06 2.19 7.06 2.52 7.19 0.31 0.12 2.99-0.26 5.94-0.83 12.04-2.35 21.38-3.51 30.84-3.83 3.7-0.12 7.05-0.39 7.44-0.6 0.66-0.34 0.71-1.07 0.61-8.4l-0.11-8.03h-290.48-290.49l-0.099 205.5c-0.075 151.58 0.018 205.64 0.356 206.05 0.634 0.76 66.333 0.82 67.093 0.06zm52.03-160.4l-20.38-2.72-0.28-2.43c-0.15-1.33-0.47-5.82-0.71-9.96-0.96-16.88-3.83-34.56-8.05-49.66-0.78-2.83-1.71-6.15-2.05-7.38-0.59-2.16-0.56-2.65 1.05-13.44 1.3-8.76 1.55-11.32 1.17-11.7-0.27-0.27-3.98-1.42-8.24-2.57-4.25-1.14-7.86-2.2-8-2.36-0.27-0.28 3.91-26.07 4.29-26.44 0.1-0.11 6.08 0.29 13.27 0.9 7.19 0.6 13.32 1 13.61 0.89s4.99-9.89 10.44-21.73 10.12-21.75 10.36-22.01c0.65-0.69 43.39 5.92 43.89 6.79 0.19 0.34 1.27 9.32 2.4 19.97 1.12 10.64 2.15 19.85 2.27 20.47 0.14 0.72 0.54 1.18 1.11 1.3 0.49 0.1 16.65 0.75 35.92 1.45s35.27 1.35 35.55 1.44c0.71 0.23 0.75 64.56 0.03 64.56-0.26 0-15.82-3.94-34.57-8.76s-34.38-8.76-34.72-8.76c-0.97 0-1.12 0.89-1.12 6.39v5.1l-2.59 3.93c-11.64 17.67-22.37 37-30.62 55.16-1.63 3.58-2.15 4.37-2.83 4.33-0.46-0.02-10-1.27-21.2-2.76zm461.75 56.51c0.03-17.4-0.09-31.73-0.26-31.84-0.18-0.11-2.91-0.29-6.09-0.42-6.3-0.24-13.68-1.53-18.83-3.29-1.67-0.57-3.34-1.04-3.73-1.04s-2.33 1.28-4.31 2.84c-1.98 1.55-6.03 4.69-8.99 6.97l-5.39 4.14-3.37-1.72c-4.81-2.45-9.96-6.02-15.6-10.83-4.43-3.78-6.27-5.55-9.71-9.4l-1.15-1.28 3.92-7.48c2.16-4.11 4.68-8.98 5.61-10.81l1.7-3.34-2.09-4c-6.06-11.63-8.79-22.13-9.34-35.89l-0.27-6.63-8.79-5.81c-4.84-3.19-9.5-6.24-10.36-6.76-1.84-1.13-1.85-1.01 0.33-8.58 1.89-6.54 4.33-12.62 7.95-19.77l3.09-6.11 2.02 0.12c1.11 0.07 6.59 1.03 12.17 2.14s10.46 2.02 10.84 2.02 2.69-1.98 5.15-4.4c6.69-6.59 14.26-11.84 22.73-15.78 3.59-1.67 10.79-4.27 11.81-4.27 1.21 0 1.96-2.08 4.8-13.42 3.52-14 2.36-12.57 10.4-12.77 2.74-0.06 5.17-0.3 5.4-0.53 0.27-0.28 0.38-7.55 0.31-21.38l-0.11-20.95-2.03-0.13c-2.71-0.18-11.65 0.58-18.95 1.6-15.75 2.2-30.83 6.81-43.57 13.32-5.88 3-10.61 5.97-10.61 6.64 0 0.26 1.05 1.76 2.34 3.33s2.98 3.64 3.77 4.6c0.78 0.96 3.19 3.91 5.36 6.56 4.62 5.66 6.73 8.25 12.53 15.41 2.36 2.91 6.28 7.68 8.71 10.59 2.43 2.92 4.59 5.61 4.8 5.98 0.3 0.55-0.18 1.03-2.58 2.61-7.26 4.75-14.22 10.08-18.55 14.19l-2.55 2.43-5.99-0.92c-3.29-0.51-6.28-1.08-6.64-1.28-0.36-0.19-1.92-1.78-3.47-3.53s-6.03-6.75-9.96-11.12-9.63-10.79-12.68-14.26c-3.05-3.48-5.93-6.67-6.42-7.1-0.87-0.78-0.88-0.77-2.13 0.41-2.09 1.99-7.97 9.48-11.15 14.22-8.2 12.21-14.73 27.31-18.79 43.39-1.58 6.28-1.69 7.59-0.67 7.91 0.39 0.11 8.5 2.25 18.03 4.74 22.45 5.86 24.1 6.33 25.95 7.38 3.29 1.87 6.93 6.07 8.08 9.35 3.21 9.1-0.33 18.61-8.28 22.27-3.21 1.48-6.1 1.55-27.77 0.71-12.46-0.49-18.15-0.58-18.44-0.28-0.5 0.5 0.04 4.71 1.59 12.28 2.18 10.69 5.44 20.1 10.54 30.37 3.96 7.98 7.2 13.24 8.16 13.24 0.37 0 2.25-1.25 4.19-2.78 1.93-1.53 8.37-6.54 14.31-11.13s15.1-11.68 20.36-15.75c5.25-4.08 9.67-7.27 9.81-7.11 0.67 0.78 1.61 3.95 1.61 5.44 0 1.41-0.4 2.19-2.65 5.19-4.72 6.28-6.86 11.32-6.85 16.16 0 2.16 0.22 3.29 0.94 4.68 1.4 2.74 4.18 6.19 8.11 10.06l3.51 3.46-1.23 0.98c-2.86 2.29-19.04 15.12-22.47 17.81-2.06 1.61-3.86 3.21-4.01 3.54-0.76 1.76 18.74 15.67 29.95 21.36 18.14 9.21 35.18 13.63 57.5 14.91 3.81 0.21 7.1 0.5 7.31 0.62 0.2 0.13 0.4 1.92 0.44 3.98l0.07 3.74 0.29-4.07c0.16-2.24 0.31-18.32 0.34-35.73zm-0.16-69.59v-3.05l-3.46-0.28c-7.01-0.57-11.63-1.99-17.24-5.32-10.49-6.24-17.39-18.59-17.39-31.16 0-10.34 5.31-21.43 13.37-27.93 5.92-4.78 12.07-7.28 19.83-8.07 2.47-0.25 4.62-0.53 4.79-0.64 0.17-0.1 0.31-1.35 0.31-2.76 0-3.57-0.22-3.7-5.19-3.11-11.15 1.31-18.99 5.05-26.22 12.51-6.04 6.24-9.66 12.74-11.84 21.24-1.15 4.48-1.21 5.13-1.03 10.48 0.24 6.95 1.34 11.4 4.38 17.71 5.9 12.23 15.87 19.96 29.1 22.56 4.5 0.89 5.35 0.99 8.15 0.93l2.44-0.05v-3.06zm-286.16-51.33c5.37-0.99 11.14-5.25 13.73-10.11 3.32-6.21 3.31-12.68-0.01-18.91-3.54-6.65-11.67-11.08-18.97-10.33-7.15 0.73-13.19 4.97-16.2 11.37-3.09 6.55-2.62 13.25 1.34 19.32 4.35 6.65 12.36 10.1 20.11 8.66zm-6.41-6.47c-6.18-1.6-10.34-6.81-10.34-12.97 0-5.43 2.41-9.61 7.01-12.16 1.98-1.1 2.49-1.2 6.23-1.2 3.63 0 4.3 0.12 6.11 1.09 8.19 4.36 9.88 15.11 3.41 21.58-0.91 0.91-2.63 2.1-3.81 2.65-2.34 1.07-6.49 1.55-8.61 1.01z"/>
    </g>
  </g>
  <metadata>
    <rdf:RDF>
      <cc:Work>
        <dc:format>image/svg+xml</dc:format>
        <dc:type rdf:resource="http://purl.org/dc/dcmitype/StillImage"/>
        <cc:license rdf:resource="http://creativecommons.org/licenses/publicdomain/"/>
        <dc:publisher>
          <cc:Agent rdf:about="http://openclipart.org/">
            <dc:title>Openclipart</dc:title>
          </cc:Agent>
        </dc:publisher>
        <dc:title>Katowice - coat of arms</dc:title>
        <dc:date>2007-12-17T08:23:47</dc:date>
        <dc:description>Coat of arms of Polish city of Katowice. Public domain. Submitted to Wikimedia Commons by user Pojdulos.</dc:description>
        <dc:source>https://openclipart.org/detail/10101/katowice---coat-of-arms-by-warszawianka-10101</dc:source>
        <dc:creator>
          <cc:Agent>
            <dc:title>warszawianka</dc:title>
          </cc:Agent>
        </dc:creator>
        <dc:subject>
          <rdf:Bag>
            <rdf:li>coat of arms</rdf:li>
            <rdf:li>externalsource</rdf:li>
            <rdf:li>hammer</rdf:li>
            <rdf:li>poland</rdf:li>
            <rdf:li>wheel</rdf:li>
            <rdf:li>wikimedia commons</rdf:li>
          </rdf:Bag>
        </dc:subject>
      </cc:Work>
      <cc:License rdf:about="http://creativecommons.org/licenses/publicdomain/">
        <cc:permits rdf:resource="http://creativecommons.org/ns#Reproduction"/>
        <cc:permits rdf:resource="http://creativecommons.org/ns#Distribution"/>
        <cc:permits rdf:resource="http://creativecommons.org/ns#DerivativeWorks"/>
      </cc:License>
    </rdf:RDF>
  </metadata>
</svg>
