<svg xmlns="http://www.w3.org/2000/svg" width="475" height="210" viewBox="0 0 475 210"><path d="M131.45,104.41h-9.51a5.13,5.13,0,0,1,.28-2.3,4.51,4.51,0,0,0,.09-.53,4.39,4.39,0,0,1,.57-1.68c.46-.5.4-1.22,1-1.63.39-.28.59-.82.93-1.21a5,5,0,0,1,.78-.66,22.23,22.23,0,0,1,1.85-1.33c.46-.28,1.06-.36,1.51-.66a17.9,17.9,0,0,1,2.29-.82,3.8,3.8,0,0,1,.95-.25,17.22,17.22,0,0,1,1.86-.32c1.34-.11,2.69-.22,4-.22s2.83.09,4.24.22a24.86,24.86,0,0,1,2.54.52c.39.08.79.14,1.17.25a15.25,15.25,0,0,1,2.18.77A13.7,13.7,0,0,1,150,95.75a5.32,5.32,0,0,1,1.22,1c.42.53.66,1.2,1,1.77.47.72.39,1.61.71,2.31a7.48,7.48,0,0,1,.25,3.24c0,6.06,0,12.11,0,18.17a19.34,19.34,0,0,0,.24,3.31,19.41,19.41,0,0,0,.86,2.61h-9.78c-.19-1-.37-2.07-.56-3.15,0,0,0,0-.06,0-.39.36-.75.76-1.16,1.1a6.87,6.87,0,0,1-1,.65c-.45.25-.91.49-1.38.71a10.46,10.46,0,0,1-2.18.84c-1,.22-2,.39-3,.58a17.89,17.89,0,0,1-4.38.12,11.79,11.79,0,0,1-3.78-.89,9.21,9.21,0,0,1-2-1.06,14,14,0,0,1-1.1-1.08c-.14-.13-.35-.19-.47-.33-.3-.34-.56-.71-.85-1.1.52-.29,1-.54,1.47-.85s.94-.74,1.43-1.08,1-.66,1.52-1,.93-.44,1.23-.92c.13-.2.41-.29.62-.44l1.61-1.2a11.07,11.07,0,0,0,.74,1.8,5.05,5.05,0,0,0,1.12,1c.82.69,1.82.58,2.79.68a13.41,13.41,0,0,0,4.05-.26,4.33,4.33,0,0,0,1.41-.7,7,7,0,0,0,1.48-1.18,6.59,6.59,0,0,0,.76-1.47,10.32,10.32,0,0,0,.76-5c0-.76,0-1.53,0-2.25-.42.18-.79.35-1.16.49a11.65,11.65,0,0,1-1.36.49,14.18,14.18,0,0,1-1.46.17c-.25,0-.59-.14-.7.28,0,0-.13,0-.2,0a22.83,22.83,0,0,0-2.76.24,11.91,11.91,0,0,0-2.8.91,4.49,4.49,0,0,0-.94.43c-.77.64-1.92.71-2.51,1.64,0,0-.09.05-.14.06a8.1,8.1,0,0,0-2.65,1.65,14.6,14.6,0,0,0-1.94,1.35,5,5,0,0,1-1.3.69,14.85,14.85,0,0,0-1.2.93c-.46.33-1,.59-1.46.89l-1.91,1.17c-.43.25-.88.48-1.31.74-.72.43-1.42.89-2.14,1.31-.43.24-.88.42-1.32.63l-1.88.89a16.12,16.12,0,0,1-1.72.73,8.06,8.06,0,0,0-1.92.49c-.6.41-1.29.23-1.87.57a2.55,2.55,0,0,1-1,.18c-.7.07-1.4.16-2.1.2-1.65.08-3.31.2-5,.2a12.92,12.92,0,0,1-2.08-.4c-.32-.06-.65,0-1-.08a4.35,4.35,0,0,1-1.71-.42c-.56-.41-1.37-.17-1.79-.8,0,0-.14,0-.21-.06a5.83,5.83,0,0,1-1.68-.82c-.71-.32-1.2-.91-1.86-1.27s-1-1.21-1.77-1.55c-.23-.11-.29-.53-.47-.78-.59-.84-1.19-1.66-1.79-2.49a.31.31,0,0,1-.05-.1,11.37,11.37,0,0,0-.79-2.16,14.94,14.94,0,0,1-.72-2.51,5.58,5.58,0,0,1-.25-1.65c-.09-1.32-.22-2.65-.2-4a17.54,17.54,0,0,1,.41-2.68c.1-.62.19-1.25.34-1.86a10.13,10.13,0,0,1,.69-2.27,16.48,16.48,0,0,1,1.25-2.35c.61-.82,1.21-1.66,1.89-2.43A13.56,13.56,0,0,1,89,96.54a26,26,0,0,1,2.91-2,11.83,11.83,0,0,1,2-.71c.7-.25,1.41-.51,2.13-.73.21-.07.47,0,.7,0a20.45,20.45,0,0,1,5-.29,8.89,8.89,0,0,1,2.47.36c.52.18,1.19,0,1.6.59.09.12.43,0,.61.13a9.89,9.89,0,0,1,2.49,1.26c.37.33,1,.44,1.33.77a21.45,21.45,0,0,1,1.63,1.67c.54.56,1.09,1.13,1.63,1.71.08.09.07.27.14.38.44.72.88,1.42,1.32,2.13a.33.33,0,0,1,.06.1c0,1,.71,1.74.84,2.72.06.45.34,1,.43,1.49s.2,1.14.27,1.72.15,1.42.23,2.13.19,1.22.2,1.83a10.23,10.23,0,0,1-.2,1.52H92.08c.1.56.21,1.06.29,1.57a5.54,5.54,0,0,0,0,.71,8.47,8.47,0,0,0,.71,2.13,10.71,10.71,0,0,0,1.22,1.74,8.63,8.63,0,0,0,2.53,1.71,5.39,5.39,0,0,0,1.73.38,12.62,12.62,0,0,0,2.28.2c1,0,1.9-.26,2.85-.4.34,0,.69,0,1-.09l3.25-.75a3.13,3.13,0,0,0,.84-.17c.77-.47,1.71-.41,2.5-.9a18.4,18.4,0,0,1,2.58-1.07c.43-.19.84-.46,1.25-.69l.62-.35c.55-.28,1.1-.54,1.63-.84a3.25,3.25,0,0,0,.67-.5,5.26,5.26,0,0,1,1.36-.92,9.28,9.28,0,0,0,1.36-1c.66-.48,1.36-.92,2-1.4.49-.36,1-.76,1.44-1.13.12-.09.31-.09.44-.17.68-.36,1.34-.78,2-1.09s1.63-.54,2.4-.92a16,16,0,0,1,2.69-.81,14,14,0,0,1,3.35-.62,14.39,14.39,0,0,0,2-.39c.53-.08,1.08-.09,1.62-.13s1,.08,1.27-.16c.48-.41,1.06-.4,1.57-.64a3.75,3.75,0,0,0,1.81-1.79,5.43,5.43,0,0,0-.72-3.82,3,3,0,0,0-.85-.75c-1.39-1-3-.8-4.59-.87a13.34,13.34,0,0,0-3.1.46.92.92,0,0,0-.5.35c-.32.48-1.12.48-1.18,1.21-.79.48-.55,1.47-1,2.13C131.38,103.71,131.47,104.07,131.45,104.41ZM92,107H107.1a8.51,8.51,0,0,0-.38-1.74,7.74,7.74,0,0,0-1.36-2.83,2.61,2.61,0,0,0-.48-.65,9,9,0,0,0-1.43-.94,5,5,0,0,0-1.58-.59,25.21,25.21,0,0,0-2.89-.12,4.7,4.7,0,0,0-1.35.14c-.83.27-1.62.63-2.43.95a.5.5,0,0,0-.17.11c-.24.28-.46.59-.71.86a5,5,0,0,0-1.5,2.5c0,.06-.1.1-.12.16C92.48,105.56,92.26,106.25,92,107Z" style="fill:#f1592d"/><path d="M192.53,128.12h-9.76c.11-.5.21-1,.3-1.4a2.36,2.36,0,0,0,0-.38q0-9.66,0-19.32c0-.19-.18-.36-.25-.55a.89.89,0,0,1-.07-.36,6,6,0,0,0-.73-3,4.74,4.74,0,0,0-1.88-2c-1.47-.94-3-.73-4.54-.65a4.82,4.82,0,0,0-3,1.15,5.61,5.61,0,0,0-1.66,2.09c-.15.39-.12.91-.58,1.21-.15.09-.12.47-.14.72-.05.52-.07,1-.12,1.57,0,.22.13.52-.27.62-.06,0-.06.33-.06.51v19.72h-9.4V93.81h9v4.54l.22.17a1.52,1.52,0,0,1,.12-.36,2.42,2.42,0,0,1,.35-.44s.08,0,.08-.06c0-.61.61-.75.9-1.14a7.72,7.72,0,0,1,1.11-1,12.28,12.28,0,0,1,1.14-.91c.2-.14.49-.13.71-.24.68-.31,1.34-.69,2-1A5.62,5.62,0,0,1,177.6,93a27,27,0,0,1,6.09.08,13.46,13.46,0,0,1,2.73.83,4.18,4.18,0,0,1,1.21.56,6.94,6.94,0,0,1,2.28,2.1c.22.42.64.72.89,1.13a5.63,5.63,0,0,1,.51,1.21,16.9,16.9,0,0,0,.58,1.74,9.24,9.24,0,0,1,.53,3.93c.05,1.36.1,2.73.11,4.1q0,9.36,0,18.72Z" style="fill:#f1592d"/><path d="M366.56,112.22H340.11c0,.56-.18,1.18,0,1.59.46.89.21,1.87.53,2.74s.79,2,1.21,3c.23.52.49,1,.75,1.53a2.47,2.47,0,0,0,.45.61c.4.38.82.74,1.24,1.11.25.22.53.42.77.66a7.83,7.83,0,0,0,3,1.7,5.91,5.91,0,0,0,2.19.24,33.19,33.19,0,0,0,4.35-.24,7.91,7.91,0,0,0,2.21-1c.35-.18.61-.54,1-.66.88-.32,1.18-1.24,1.9-1.73a1.88,1.88,0,0,0,.47-.7c.3-.58.6-1.16.88-1.75s.38-.94.55-1.42c.09-.27.13-.57.24-.83s.24-.32.37-.32c1.4,0,2.8,0,4.12,0-.12.55-.2,1.06-.34,1.55a16.72,16.72,0,0,1-.59,1.68c-.28.7-.59,1.39-.92,2.07a11.72,11.72,0,0,1-.6,1.1,9.12,9.12,0,0,1-.76,1.18,10.63,10.63,0,0,1-1,1,19.83,19.83,0,0,1-2,1.71,15.71,15.71,0,0,1-2.05,1,25,25,0,0,1-2.69.73,9.71,9.71,0,0,1-3.1.36,30.08,30.08,0,0,1-3.29,0c-.58,0-1.23.09-1.75-.39-.13-.12-.43-.05-.63-.12-.66-.23-1.32-.49-2-.75a10.58,10.58,0,0,1-1.76-.75,15.71,15.71,0,0,1-1.8-1.48,9.13,9.13,0,0,1-1.05-1c-.42-.49-.74-1.06-1.16-1.54a17.39,17.39,0,0,1-1.3-2.3,2.81,2.81,0,0,1-.27-.77,7.8,7.8,0,0,1-.75-2.56c0-.26-.25-.52-.3-.79-.1-.52-.13-1.05-.21-1.57a32.85,32.85,0,0,1-.22-6.11,12.59,12.59,0,0,1,.47-3.41c.22-.69.28-1.41.53-2.08a16.52,16.52,0,0,1,1.25-2.78A11.17,11.17,0,0,1,340,97.94a5.39,5.39,0,0,0,.69-.92,3.76,3.76,0,0,1,.76-.59,2.06,2.06,0,0,0,.47-.46,1.36,1.36,0,0,1,.64-.54,22.39,22.39,0,0,0,3.22-1.59,5.49,5.49,0,0,1,2.13-.51c.6-.13,1.19-.29,1.79-.42a1.59,1.59,0,0,1,.38,0c.75,0,1.51,0,2.25,0s1.45.29,2.18.41a8.7,8.7,0,0,1,1.45.16,13,13,0,0,1,1.95.87,16,16,0,0,1,1.88,1.08,18.35,18.35,0,0,1,1.47,1.2,7.51,7.51,0,0,1,.72.66,6.34,6.34,0,0,1,.69.86c.46.71.95,1.41,1.34,2.16s.54,1.33.81,2a18.55,18.55,0,0,1,.83,2,14.11,14.11,0,0,1,.38,2.06,5.17,5.17,0,0,0,.14,1.5C366.87,109.24,366.17,110.72,366.56,112.22ZM362,108.47a5.36,5.36,0,0,0-.26-2.48,5.91,5.91,0,0,0-.15-.84c-.26-.73-.54-1.46-.85-2.18a13.59,13.59,0,0,0-.7-1.3,2.47,2.47,0,0,0-.29-.53,8.51,8.51,0,0,1-.77-.83,9,9,0,0,0-2.3-2.14c-.28-.23-.83-.23-1-.49-.45-.69-1.35-.24-1.78-.83a16.92,16.92,0,0,0-4.44-.11,3,3,0,0,0-.9.16,12.63,12.63,0,0,1-1.66.8,3.08,3.08,0,0,0-1.47.76c-.69.74-1.67,1.19-2.13,2.15a5,5,0,0,1-.44.62,7.15,7.15,0,0,0-.77,1.06,20.66,20.66,0,0,0-.93,2.16,19.53,19.53,0,0,0-.61,2.11c-.1.4-.09.83-.19,1.23a2.84,2.84,0,0,1-.38.68Z" style="fill:#979797"/><path d="M67.5,80.84h9.43v47.27H67.5Z" style="fill:#f1592d"/><path d="M249,129.13c-.64,0-1.28,0-1.92,0-.28,0-.63.16-.77-.27,0,0-.2,0-.3,0a10.64,10.64,0,0,1-2-.25,18.28,18.28,0,0,1-2.27-1,2.37,2.37,0,0,0-.36-.17,3.61,3.61,0,0,1-1.56-1,4.39,4.39,0,0,0-.66-.47c-.54-.4-1.09-.77-1.6-1.21a5.91,5.91,0,0,1-.69-.86c-.43-.56-.9-1.09-1.28-1.68a14.19,14.19,0,0,1-.7-1.47,3.48,3.48,0,0,0-.32-.64,4.06,4.06,0,0,1-.6-1.63c-.12-.62-.36-1.23-.52-1.85a30.15,30.15,0,0,1-.59-3.15,22.9,22.9,0,0,1-.13-3.6,16.08,16.08,0,0,1,.4-2.55c.15-.9.27-1.81.46-2.71a4.64,4.64,0,0,1,.46-1.31c.48-.86.78-1.8,1.27-2.66s1-1.41,1.46-2.17a4.2,4.2,0,0,1,.82-.92,21.33,21.33,0,0,1,2.17-1.88,7.89,7.89,0,0,1,1.28-.8c.49-.22,1-.45,1.49-.64s1.25-.49,1.89-.71a5.33,5.33,0,0,1,1.23-.33c1.33-.1,2.67-.18,4-.22a10.13,10.13,0,0,1,2.34.13c1,.22,2,.61,2.93.93.28.09.58.16.86.27a5.34,5.34,0,0,1,1.76,1c.43.38,1,.6,1.46,1a10.9,10.9,0,0,1,1,1,8.68,8.68,0,0,1,.7.65c.43.51.85,1,1.24,1.57a9.43,9.43,0,0,1,.72,1.17c.25.46.47.93.68,1.41.34.81.7,1.63,1,2.46a11.88,11.88,0,0,1,.38,1.67c.07.44-.07,1,.14,1.32a4.07,4.07,0,0,1,.31,2.16c.06.9.06,1.81.07,2.72,0,.34-.06.69-.08,1a2,2,0,0,1-.28,1.15c-.24.36-.08,1-.17,1.43s-.31,1.16-.47,1.74q-.1.36-.24.72c-.23.6-.45,1.21-.7,1.81-.17.39-.35.78-.56,1.16a8.85,8.85,0,0,1-.78,1.29c-.58.72-1.19,1.41-1.81,2.09-.39.42-.83.8-1.25,1.2a1.77,1.77,0,0,1-.17.12c-.44.34-.82.86-1.32,1a20.66,20.66,0,0,0-2.08,1,6.21,6.21,0,0,1-.75.34,12,12,0,0,1-1.47.31c-.4.07-.92-.05-1.21.15a2.13,2.13,0,0,1-1.37.3Zm.05-3.69c.62,0,1.29-.12,2-.14a1.32,1.32,0,0,0,.81-.31,2.61,2.61,0,0,1,1-.19c.61-.1,1-.61,1.55-.77a5.28,5.28,0,0,0,1.72-1.23,17.45,17.45,0,0,0,1.88-2,.7.7,0,0,0,.12-.28,2.3,2.3,0,0,1,.17-.39,12.43,12.43,0,0,0,1-1.54,19.52,19.52,0,0,0,.73-2.24c.05-.17,0-.36.07-.53a11,11,0,0,0,.62-2.24c.09-1.78,0-3.56,0-5.34a.4.4,0,0,0,0-.22c-.4-.57,0-1.39-.62-1.9.08-1-.63-1.82-.77-2.77a.45.45,0,0,0-.11-.17c-.32-.44-.84-.83-.93-1.31-.14-.78-.79-1.13-1.11-1.73a3.33,3.33,0,0,0-1-.89c-.35-.27-.84-.42-1.1-.75-.58-.74-1.52-.77-2.22-1.25-.17-.12-.34-.3-.52-.32-1.12-.14-2.25-.26-3.39-.33-.53,0-1.08.1-1.62.09a9.26,9.26,0,0,0-2.93.72c-.27.08-.64.16-.76.36-.33.55-1,.43-1.4,1s-1.17,1-1.7,1.63a8.56,8.56,0,0,0-1,1.46c-.36.62-.7,1.27-1,1.91-.11.23-.1.55-.26.7-.79.71-.41,1.78-.89,2.62a5.25,5.25,0,0,0-.27,2.34c0,1.17,0,2.34.08,3.5a7.92,7.92,0,0,0,.54,3.28,18.33,18.33,0,0,1,.95,2.7,1.18,1.18,0,0,0,.11.19c.3.46.62.91.9,1.39s.32.8.77,1c.19.09.44.27.46.44.13.76.88.92,1.31,1.37a6.7,6.7,0,0,0,2.06,1.31,9.8,9.8,0,0,0,2.32.67A22.39,22.39,0,0,0,249,125.44Z" style="fill:#979797"/><path d="M299,128.11h-4.39v-.67c0-7.46,0-14.93,0-22.39a23.31,23.31,0,0,0-.42-3.1c-.6-.28-.17-1.12-.82-1.45-.26-.14-.27-.7-.5-1a6.56,6.56,0,0,0-1.79-1.69,6.12,6.12,0,0,0-1.67-.66,9.33,9.33,0,0,0-4.19-.42c-.71.09-1.45.08-2.14.24a10.72,10.72,0,0,0-1.84.74,4.06,4.06,0,0,0-.87.47,12.51,12.51,0,0,0-1,.91,10.63,10.63,0,0,0-1,1,15.58,15.58,0,0,1-1,1.44c-.45.41-.28,1.11-.83,1.45-.13.08-.1.4-.15.61-.25,1-.51,1.91-.75,2.87a1.94,1.94,0,0,0,0,.54V128.1h-4.35V93.77c1.34,0,2.67,0,4,0,.41,0,.35.3.35.54,0,1.47,0,2.93,0,4.39v.53l.12,0c.2-.37.38-.76.61-1.11a11.17,11.17,0,0,1,1-1.34,10,10,0,0,1,1.47-1.36,17,17,0,0,1,2-1.22,13.1,13.1,0,0,1,2.29-.85,15.8,15.8,0,0,1,5.16-.48,3.46,3.46,0,0,1,1.45.13c1.16.56,2.55.25,3.62,1.13.44.37,1.12.43,1.61.76a5.69,5.69,0,0,1,.75.63c.56.56,1,1.28,1.5,1.88a6.49,6.49,0,0,1,1,2.23c.24.69.33,1.44.57,2.13a9.9,9.9,0,0,1,.31,3.29v23Z" style="fill:#979797"/><path d="M224.32,115.75h4.39c-.09.62-.16,1.21-.28,1.8a13.25,13.25,0,0,1-.44,1.61q-.47,1.29-1,2.55a17.47,17.47,0,0,1-.87,1.66,4.51,4.51,0,0,1-.63.81c-.54.53-1.18,1-1.66,1.54a8.59,8.59,0,0,1-1.41,1.17c-.63.52-1.44.64-2.05,1.15-.12.1-.35.07-.5.15a11.85,11.85,0,0,1-2.59.65A18.93,18.93,0,0,1,214,129a4.49,4.49,0,0,1-.82,0c-1-.12-2-.21-3-.39a8.38,8.38,0,0,1-1.94-.6,17,17,0,0,1-2.18-1.18,16.48,16.48,0,0,1-2.27-1.59,15.85,15.85,0,0,1-1.65-2c-.25-.32-.47-.67-.69-1-.32-.49-.62-1-.95-1.48s-.21-1.08-.75-1.41c-.07-.05,0-.28-.06-.42-.27-.86-.56-1.71-.83-2.57-.06-.2,0-.43-.07-.64a24.23,24.23,0,0,1-.48-6.74,6.15,6.15,0,0,1,.11-1.36,5.86,5.86,0,0,0,.36-1.23,8.39,8.39,0,0,1,.4-1.89c.09-.34.27-.66.39-1s0-.77.45-.93c0,0,0-.26,0-.36.36-.71.73-1.4,1.11-2.09.12-.22.28-.42.4-.63.21-.37.32-.92.62-1.07.8-.37.87-1.39,1.76-1.7.54-.19.89-.84,1.4-1.14s.77-.68,1.34-.8A4.58,4.58,0,0,0,208,94s.08-.08.12-.09c.7-.15,1.41-.29,2.11-.45.32-.08.56-.32.95-.36a24.65,24.65,0,0,1,5.43-.08,12,12,0,0,1,1.46.13c.61.13,1.19.37,1.79.56.15,0,.32,0,.47.1a16.78,16.78,0,0,1,1.71.66,8.66,8.66,0,0,1,1.06.77c.5.37,1,.7,1.51,1.11a7,7,0,0,1,.74.88c.17.19.37.35.54.53a.74.74,0,0,1,.16.2c.32.56.64,1.11,1,1.68a8.26,8.26,0,0,1,.43,1c.21.54.42,1.08.58,1.63.09.29.06.61.14.9s-.13.9.37,1.18c0,0,0,.2,0,.35-1.4,0-2.77,0-4.13,0a.42.42,0,0,1-.33-.21c-.15-.33-.23-.68-.36-1s-.34-.89-.51-1.33a5.71,5.71,0,0,0-.38-.95A12.52,12.52,0,0,0,222,100a6.61,6.61,0,0,0-.47-.58,7.9,7.9,0,0,0-1.12-1.12,15.55,15.55,0,0,0-2.1-1.1,6.48,6.48,0,0,0-2.53-.5c-.14,0-.27-.19-.41-.2-.54,0-1.09,0-1.63,0-.12,0-.24.16-.37.18-.79.09-1.58.15-2.37.23,0,0-.08,0-.11,0l-1.82,1a2.44,2.44,0,0,1-.48.25c-.83.25-1.26,1-1.86,1.51a9.38,9.38,0,0,0-1.16,1.28,7,7,0,0,0-.69,1.1,10,10,0,0,1-1.18,2.11c-.21.24-.12.73-.21,1.09-.17.72-.38,1.42-.57,2.13,0,.06,0,.1,0,.16-.08,1.72-.23,3.44-.2,5.15a17.82,17.82,0,0,0,.53,3,10.51,10.51,0,0,0,.44,1.55c.21.53.5,1,.76,1.55.1.21.19.44.31.65a11,11,0,0,0,.76,1.23,17.64,17.64,0,0,0,1.17,1.42,10.36,10.36,0,0,0,2.62,1.94,13.77,13.77,0,0,0,2,.82,11.71,11.71,0,0,0,4.19.41,2.21,2.21,0,0,0,1.22-.14c.52-.36,1.14-.28,1.64-.54a7.73,7.73,0,0,0,1.91-1.16,9.62,9.62,0,0,0,1.6-1.59c.46-.75,1-1.43,1.47-2.19a8.64,8.64,0,0,0,.53-1.63,7.36,7.36,0,0,0,.31-.9C224.24,116.76,224.26,116.28,224.32,115.75Z" style="fill:#979797"/><path d="M302.85,93.88c1.7,0,3.21,0,4.73,0,.15,0,.38.24.44.42.15.46.05,1,.54,1.36.22.17.12.72.22,1.08s.32.87.49,1.31.37,1,.53,1.48.17,1.15.49,1.53.18,1,.47,1.31a2.22,2.22,0,0,1,.48,1.34,2.38,2.38,0,0,0,.35,1.06c.41.44.29,1.06.56,1.45a9.88,9.88,0,0,1,.71,1.94c.3.62.36,1.36.7,1.93s.26,1.37.58,1.89c.58.92.64,2,1.18,2.93.41.72.43,1.61.78,2.33a20.53,20.53,0,0,0,1.14,2.84c.06.09,0,.26,0,.37.27.71.56,1.41.82,2.12a5.79,5.79,0,0,0,.41,1c.25-.6.52-1.19.73-1.81a12.61,12.61,0,0,1,.71-2.23,13.71,13.71,0,0,0,.95-2.67,4.32,4.32,0,0,1,.46-1.38c.39-.53.27-1.2.56-1.67.39-.65.47-1.4.79-2,.23-.43.17-1,.43-1.26.72-.81.51-1.91,1-2.8a16.28,16.28,0,0,0,1-3c.18-.56.22-1.27.59-1.65s.31-1.09.59-1.6.33-1.49.72-2.08.41-1.59.92-2.28a4.28,4.28,0,0,0,.36-1.18c.24-.69.5-1.37.74-2h4.51a5,5,0,0,1-.3.84c-.42.7-.33,1.64-.74,2.22-.55.78-.42,1.79-1.11,2.46-.09.08,0,.33,0,.48-.33.84-.68,1.67-1,2.51-.21.55-.41,1.1-.6,1.67a5.08,5.08,0,0,1-.48,1.53c-.36.46-.24,1-.53,1.42-.6.81-.63,1.84-1.14,2.7a12,12,0,0,0-.71,2.09c-.28.75-.6,1.48-.91,2.22-.09.21-.21.42-.28.64-.27.83-.51,1.68-.79,2.51-.1.3-.28.56-.4.85-.21.52-.4,1.05-.58,1.58a9.55,9.55,0,0,1-.38,1.18c-.27.55-.38,1.17-.64,1.7s-.41,1.41-.78,2-.22,1.09-.54,1.45c-.56.62-.29,1.48-.89,2.13-1.4,0-2.92,0-4.43,0a.48.48,0,0,1-.34-.31c-.05-.33,0-.65-.4-.84-.11,0-.1-.33-.16-.49l-.63-1.78-.18-.49a11.07,11.07,0,0,0-.77-2.16,7.59,7.59,0,0,1-.54-1.63,6.23,6.23,0,0,0-.73-1.54,8,8,0,0,1-.67-1.93c-.37-.93-.8-1.85-1.17-2.78-.23-.58-.4-1.19-.61-1.77a10.39,10.39,0,0,0-.91-2.37c-.33-.5-.3-1.09-.6-1.52-.59-.83-.55-1.88-1.13-2.74a10.9,10.9,0,0,1-.85-2.43c-.18-.49-.45-.95-.64-1.43s-.45-1.23-.66-1.85a20.49,20.49,0,0,0-.7-2.09,15.68,15.68,0,0,1-1.26-3.12A4.9,4.9,0,0,0,302.85,93.88Z" style="fill:#979797"/><path d="M396.33,97.72h-5.89V93.89h5.87V83.71h4.18V93.86h7v3.86h-7v.7q0,11.28,0,22.56a5.09,5.09,0,0,0,.72,2.69,2.59,2.59,0,0,0,1.64,1.1,12.69,12.69,0,0,0,3.79.08c.27,0,.54,0,.84,0v3.73h-.56c-1.58,0-3.15,0-4.72,0a26.09,26.09,0,0,1-2.77-.42c-.17-.53-.86-.3-1.14-.85s-.75-.7-1.05-1.18a5.48,5.48,0,0,1-.83-2.89c0-.29.2-.69-.28-.86,0,0,0-.21,0-.31a55.27,55.27,0,0,1,0-6c.33-3,.1-5.9.17-8.85s0-6,0-9Z" style="fill:#979797"/><path d="M370.78,94.24h4v7.81a13.6,13.6,0,0,1,5-6.3,12.41,12.41,0,0,1,8-1.94v4.13c-.58,0-1.14,0-1.7,0-.22,0-.54-.16-.61.26,0,0-.23,0-.35.06a13.26,13.26,0,0,0-2.37.47c-.92.38-1.74,1-2.65,1.44a1.26,1.26,0,0,0-.75.73.42.42,0,0,1-.22.11c-.56.1-.8.54-1.07,1s-.61.68-.86,1.05-.59,1-.91,1.51a7.6,7.6,0,0,0-.73,2.28,15,15,0,0,0-.49,4.11c0,5.6,0,11.2,0,16.79v.7h-4.36Z" style="fill:#979797"/></svg>
